<svg width="46" height="45" viewBox="0 0 46 45" fill="none" xmlns="http://www.w3.org/2000/svg">
<rect x="1.25" y="0.75" width="43.5" height="43.5" rx="21.75" fill="url(#paint0_linear_1_14243)" stroke="white" stroke-width="1.5"/>
<path fill-rule="evenodd" clip-rule="evenodd" d="M29.4488 12.488C30.4327 11.504 32.0281 11.504 33.012 12.488C33.996 13.4719 33.996 15.0672 33.012 16.0512L28.7604 20.3029C28.7502 20.3131 28.7401 20.3231 28.7302 20.333C28.4994 20.5639 28.3387 20.7246 28.1585 20.8652C27.9467 21.0304 27.7174 21.1721 27.4749 21.2877C27.2686 21.386 27.053 21.4578 26.7433 21.561C26.73 21.5655 26.7165 21.57 26.7028 21.5745L24.8653 22.187C24.4243 22.334 23.9381 22.2192 23.6094 21.8905C23.2808 21.5619 23.166 21.0757 23.313 20.6347L23.9255 18.7972C23.93 18.7835 23.9345 18.77 23.939 18.7567C24.0422 18.447 24.114 18.2314 24.2123 18.0251C24.3279 17.7825 24.4696 17.5533 24.6348 17.3415C24.7753 17.1613 24.9361 17.0006 25.167 16.7698C25.1769 16.7599 25.1869 16.7498 25.1971 16.7396L29.4488 12.488ZM31.9514 13.5486C31.5532 13.1505 30.9076 13.1505 30.5094 13.5486L30.3777 13.6803C30.3829 13.6966 30.3885 13.7133 30.3944 13.7305C30.4762 13.9661 30.6315 14.2784 30.9265 14.5734C31.2216 14.8685 31.5339 15.0238 31.7695 15.1056C31.7867 15.1115 31.8034 15.1171 31.8196 15.1223L31.9514 14.9905C32.3495 14.5924 32.3495 13.9468 31.9514 13.5486ZM30.6857 16.2562C30.4193 16.1068 30.1372 15.9054 29.8659 15.6341C29.5946 15.3628 29.3932 15.0807 29.2438 14.8143L26.2578 17.8003C25.9856 18.0725 25.8944 18.1655 25.8176 18.264C25.7193 18.3899 25.6351 18.5262 25.5664 18.6704C25.5127 18.7831 25.4702 18.9063 25.3485 19.2715L25.1232 19.9474L25.5526 20.3768L26.2284 20.1515C26.5937 20.0297 26.7169 19.9873 26.8296 19.9336C26.9738 19.8649 27.11 19.7807 27.236 19.6824C27.3344 19.6056 27.4275 19.5144 27.6997 19.2422L30.6857 16.2562Z" fill="white"/>
<path fill-rule="evenodd" clip-rule="evenodd" d="M23 11.75L22.9426 11.75C20.6342 11.75 18.8252 11.75 17.4137 11.9397C15.969 12.134 14.8289 12.5393 13.9341 13.4341C13.0393 14.3289 12.634 15.469 12.4397 16.9137C12.25 18.3252 12.25 20.1342 12.25 22.4426V22.5574C12.25 24.8658 12.25 26.6748 12.4397 28.0863C12.634 29.531 13.0393 30.6711 13.9341 31.5659C14.8289 32.4607 15.969 32.866 17.4137 33.0603C18.8252 33.25 20.6342 33.25 22.9426 33.25H23.0574C25.3658 33.25 27.1748 33.25 28.5863 33.0603C30.031 32.866 31.1711 32.4607 32.0659 31.5659C32.9607 30.6711 33.366 29.531 33.5603 28.0863C33.75 26.6748 33.75 24.8658 33.75 22.5574V22.5C33.75 22.0858 33.4142 21.75 33 21.75C32.5858 21.75 32.25 22.0858 32.25 22.5C32.25 24.8782 32.2484 26.5864 32.0736 27.8864C32.0667 27.9377 32.0596 27.9882 32.0522 28.0378L29.2782 25.5412C27.9788 24.3718 26.0437 24.2553 24.6134 25.2605L24.3152 25.4701C23.8182 25.8193 23.1421 25.7608 22.7125 25.3313L18.4228 21.0415C17.2874 19.9061 15.4661 19.8455 14.2577 20.9028L13.751 21.3462C13.7555 19.5539 13.7812 18.193 13.9264 17.1136C14.0982 15.8352 14.4251 15.0645 14.9948 14.4948C15.5645 13.9251 16.3352 13.5982 17.6136 13.4264C18.9136 13.2516 20.6218 13.25 23 13.25C23.4142 13.25 23.75 12.9142 23.75 12.5C23.75 12.0858 23.4142 11.75 23 11.75ZM13.9264 27.8864C14.0982 29.1648 14.4251 29.9355 14.9948 30.5052C15.5645 31.0749 16.3352 31.4018 17.6136 31.5736C18.9136 31.7484 20.6218 31.75 23 31.75C25.3782 31.75 27.0864 31.7484 28.3864 31.5736C29.6648 31.4018 30.4355 31.0749 31.0052 30.5052C31.2487 30.2617 31.4479 29.9814 31.6096 29.6404C31.5707 29.6166 31.5334 29.589 31.4983 29.5574L28.2747 26.6562C27.4951 25.9545 26.334 25.8846 25.4758 26.4877L25.1776 26.6973C24.0843 27.4657 22.5968 27.3369 21.6519 26.3919L17.3622 22.1022C16.7851 21.5252 15.8596 21.4944 15.2455 22.0317L13.7504 23.3399C13.753 25.2884 13.7729 26.7448 13.9264 27.8864Z" fill="white"/>
<defs>
<linearGradient id="paint0_linear_1_14243" x1="0.5" y1="22.3427" x2="45.5" y2="22.3427" gradientUnits="userSpaceOnUse">
<stop stop-color="#020659"/>
<stop offset="1" stop-color="#031780"/>
</linearGradient>
</defs>
</svg>
